<svg width="77" height="76" viewBox="0 0 77 76" fill="none" xmlns="http://www.w3.org/2000/svg">
<path d="M58.9198 37.946C57.1563 38.2562 55.4746 37.0814 55.1636 35.322C54.8526 33.5626 56.0302 31.8848 57.7938 31.5746C59.5573 31.2644 61.239 32.4392 61.55 34.1986C61.861 35.958 60.6834 37.6357 58.9198 37.946Z" fill="#FF7900"/>
<path d="M54.3115 51.0153C52.7636 50.1169 52.2389 48.1367 53.1394 46.5925C54.04 45.0483 56.0248 44.5248 57.5726 45.4233C59.1205 46.3217 59.6452 48.3019 58.7447 49.8461C57.8441 51.3903 55.8593 51.9138 54.3115 51.0153Z" fill="#FF7900"/>
<path d="M42.3352 58.0944C41.7269 56.414 42.5992 54.5599 44.2835 53.9531C45.9677 53.3463 47.8262 54.2165 48.4345 55.8968C49.0428 57.5772 48.1705 59.4313 46.4862 60.0381C44.8019 60.6449 42.9434 59.7747 42.3352 58.0944Z" fill="#FF7900"/>
<path d="M28.534 55.8859C29.1459 54.2069 31.0063 53.3407 32.6893 53.9513C34.3722 54.5618 35.2404 56.4178 34.6284 58.0968C34.0165 59.7758 32.1561 60.6419 30.4731 60.0314C28.7902 59.4209 27.922 57.5649 28.534 55.8859Z" fill="#FF7900"/>
<path d="M19.4435 45.4129C20.9937 44.5184 22.9771 45.0469 23.8738 46.5934C24.7704 48.1399 24.2406 50.1187 22.6905 51.0132C21.1403 51.9077 19.1569 51.3792 18.2603 49.8327C17.3636 48.2862 17.8934 46.3074 19.4435 45.4129Z" fill="#FF7900"/>
<path d="M19.3181 31.5258C21.079 31.8508 22.2424 33.5383 21.9168 35.295C21.5911 37.0518 19.8996 38.2125 18.1387 37.8876C16.3778 37.5627 15.2143 35.8752 15.54 34.1184C15.8657 32.3617 17.5572 31.2009 19.3181 31.5258Z" fill="#FF7900"/>
<path d="M28.1489 20.8833C29.2895 22.2606 29.0949 24.2996 27.7144 25.4375C26.3338 26.5753 24.2901 26.3812 23.1495 25.0039C22.0089 23.6266 22.2035 21.5877 23.5841 20.4498C24.9646 19.3119 27.0084 19.506 28.1489 20.8833Z" fill="#FF7900"/>
<path d="M42.0242 18.3216C42.0082 20.1081 40.5437 21.5434 38.753 21.5275C36.9623 21.5116 35.5236 20.0505 35.5395 18.264C35.5555 16.4775 37.0201 15.0422 38.8107 15.0581C40.6014 15.074 42.0401 16.5351 42.0242 18.3216Z" fill="#FF7900"/>
<path d="M54.0595 25.1179C52.903 26.4819 50.8571 26.6524 49.4899 25.4986C48.1226 24.3448 47.9518 22.3038 49.1083 20.9397C50.2647 19.5757 52.3106 19.4053 53.6779 20.559C55.0451 21.7128 55.216 23.7539 54.0595 25.1179Z" fill="#FF7900"/>
</svg>
