<svg width="900" height="880" viewBox="0 0 900 880" fill="none" xmlns="http://www.w3.org/2000/svg">
<path d="M688.676 443.522C668.063 447.148 648.406 433.417 644.772 412.852C641.137 392.288 654.901 372.677 675.514 369.051C696.127 365.425 715.783 379.157 719.418 399.721C723.053 420.286 709.289 439.896 688.676 443.522Z" fill="#F6F5F2"/>
<path d="M634.812 596.281C616.72 585.78 610.587 562.635 621.113 544.586C631.638 526.537 654.838 520.418 672.929 530.919C691.021 541.42 697.154 564.565 686.628 582.614C676.102 600.663 652.903 606.782 634.812 596.281Z" fill="#F6F5F2"/>
<path d="M494.829 679.023C487.719 659.383 497.915 637.711 517.601 630.618C537.288 623.525 559.01 633.697 566.12 653.337C573.23 672.977 563.034 694.649 543.347 701.742C523.661 708.835 501.938 698.663 494.829 679.023Z" fill="#F6F5F2"/>
<path d="M333.516 653.209C340.669 633.585 362.414 623.461 382.085 630.597C401.756 637.733 411.903 659.427 404.75 679.051C397.598 698.676 375.853 708.8 356.182 701.664C336.511 694.527 326.363 672.834 333.516 653.209Z" fill="#F6F5F2"/>
<path d="M227.264 530.798C245.383 520.343 268.566 526.52 279.046 544.596C289.526 562.672 283.334 585.801 265.216 596.256C247.097 606.711 223.914 600.534 213.434 582.458C202.954 564.382 209.146 541.253 227.264 530.798Z" fill="#F6F5F2"/>
<path d="M225.798 368.482C246.38 372.279 259.979 392.003 256.172 412.537C252.366 433.07 232.595 446.638 212.013 442.84C191.431 439.042 177.832 419.318 181.639 398.785C185.445 378.251 205.216 364.684 225.798 368.482Z" fill="#F6F5F2"/>
<path d="M329.016 244.088C342.347 260.187 340.073 284.019 323.937 297.319C307.8 310.618 283.912 308.35 270.581 292.251C257.25 276.153 259.524 252.321 275.66 239.021C291.797 225.721 315.685 227.99 329.016 244.088Z" fill="#F6F5F2"/>
<path d="M491.194 214.146C491.008 235.027 473.89 251.804 452.959 251.618C432.029 251.432 415.213 234.354 415.4 213.473C415.586 192.592 432.704 175.816 453.634 176.002C474.565 176.187 491.381 193.266 491.194 214.146Z" fill="#F6F5F2"/>
<path d="M631.866 293.583C618.349 309.527 594.436 311.519 578.455 298.033C562.475 284.548 560.478 260.691 573.995 244.748C587.512 228.805 611.425 226.812 627.406 240.298C643.387 253.783 645.384 277.64 631.866 293.583Z" fill="#F6F5F2"/>
</svg>
