<svg xmlns="http://www.w3.org/2000/svg" width="200" height="32" viewBox="0 0 200 32">
    <path fill="#ffffff" fill-rule="evenodd" d="M131.456 8.326c2.982 0 4.878 1.739 5.595 3.382h.06V8.736h1.523v15.616c0 4.963-2.982 7.175-6.93 7.175-4.319 0-6.211-1.929-6.739-4.456h1.644c.467 1.928 2.02 3.097 5.096 3.097 2.58 0 5.315-1.263 5.315-5.532v-2.719h-.094c-1.089 2.086-3.17 3.32-5.903 3.32-2.983 0-6.929-1.992-6.929-8.47 0-5.564 3.137-8.441 7.362-8.441zm-101.898 0c5.002 0 6.555 3.984 6.555 7.65v1.327l-12.272.032c.093 4.425 1.864 6.921 5.81 6.921 3.137 0 4.319-2.116 4.66-2.971h1.523c-.622 2.403-2.858 4.364-6.244 4.364-5.095 0-7.365-3.13-7.365-8.504 0-5.088 2.55-8.82 7.333-8.82zm124.125-.03c2.795 0 5.781 1.265 6.308 4.74h-1.646c-.219-1.642-1.742-3.317-4.599-3.317-3.48 0-5.749 2.591-5.749 7.235 0 4.617 1.773 7.303 5.594 7.303 3.137 0 4.35-1.675 4.754-3.855h1.646c-.59 3.506-3.075 5.247-6.464 5.247-4.908 0-7.268-3.384-7.268-8.504 0-4.994 2.64-8.85 7.424-8.85zM90.062 7.031v.822c0 3.224-.31 3.728-2.516 5.687l-1.305 1.17c-1.584 1.392-2.3 2.876-2.3 4.9 0 2.97 1.927 4.646 5.283 4.646 3.355 0 5.654-2.338 5.56-6.29h1.522c.125 4.932-3.012 7.682-7.207 7.682-4.723 0-6.804-2.781-6.804-5.849 0-3.13 1.368-4.583 3.325-6.447l.995-.949c1.738-1.643 1.957-1.927 1.957-4.519v-.853h1.49zM1.647.33v11.315h.03c1.088-2.15 3.139-3.32 5.81-3.32 3.45 0 6.898 2.244 6.898 8.662 0 5.973-3.417 8.662-7.332 8.662-2.89 0-4.722-1.708-5.469-3.384h-.062v2.972H0V.33h1.647zm191.236 3.35v5.057H200v1.36h-7.117v11c0 2.181 1.244 3.066 3.389 3.066 1.18 0 2.578-.16 3.728-.537v1.42c-.871.286-2.144.57-3.758.57-3.793 0-5.003-1.77-5.003-4.646V10.097h-4.687v-1.36h2.76c1.709 0 1.988-.411 1.988-2.181V3.68h1.583zm-19.031 4.678c5.182 0 5.907 3.167 5.932 6.243v7.57c0 1.265.403 1.705 1.463 1.705h.619v1.361h-.653c-2.33 0-2.983-1.074-2.951-3.32h-.06c-.902 2.246-3.047 3.573-5.72 3.573-3.076 0-5.187-1.674-5.187-4.583 0-1.928.961-3.13 2.175-3.856 1.614-.918 4.35-1.233 8.76-1.516v-.601c0-3.036-.432-5.186-4.349-5.186-2.797 0-4.132 1.519-4.38 3.32h-1.553c.279-2.466 2.235-4.646 5.904-4.71zM50.38.33v23.546h6.307v1.362h-14.2v-1.362h6.246V1.753h-5.097V.33h6.744zm19.878 0v23.546h6.31v1.362h-14.2v-1.362h6.245V1.753h-5.095V.33h6.74zm40.456 7.996c3.852 0 5.437 2.309 5.437 6.228v10.684h-1.648v-10.81c0-1.423-.278-2.53-.87-3.32-.62-.853-1.614-1.328-3.169-1.328-3.729 0-5.281 2.908-5.281 5.848v9.61h-1.647V8.736h1.522v3.036h.062c.964-1.96 2.454-3.446 5.594-3.446zM7.208 9.718c-3.822 0-5.561 2.845-5.561 5.594v3.256c0 2.591 1.615 5.688 5.437 5.688 3.697 0 5.562-2.875 5.562-7.269 0-3.887-1.399-7.269-5.438-7.269zm170.993 7.175c-4.723.314-6.774.6-7.8 1.326-.9.601-1.428 1.485-1.428 2.655 0 2.15 1.553 3.256 3.76 3.256 2.764 0 5.468-2.213 5.468-6.258v-.979zm-46.745-7.175c-3.788 0-5.654 3.034-5.654 7.048 0 3.981 1.583 7.08 5.624 7.08 3.758 0 5.561-2.813 5.561-5.627v-2.812c0-2.592-1.583-5.689-5.53-5.689zm-101.898 0c-3.574 0-5.407 2.592-5.685 6.289h10.626v-.126c.03-2.37-.746-6.163-4.941-6.163zM89.303 0c1.071 0 1.938.884 1.938 1.972 0 1.09-.867 1.975-1.938 1.975-1.07 0-1.94-.885-1.94-1.975 0-1.088.87-1.972 1.94-1.972z"/>
</svg>
