<?xml version="1.0" encoding="UTF-8"?>
<svg width="300pt" height="300pt" version="1.1" viewBox="100 100 622 622" xmlns="http://www.w3.org/2000/svg">
 <path d="m394.75 145.13c-143.06-11.836-261.45 106.56-249.62 249.62 8.8789 112.48 99.648 203.25 212.12 212.12 143.06 10.852 261.46-107.54 249.62-249.62-8.8789-112.47-99.648-203.24-212.12-212.12zm4.9336 266.39-134.18 80.902c-3.9453 2.9609-8.8789-1.9727-5.918-5.918l80.902-134.18c2.9609-4.9336 6.9062-7.8945 10.852-10.852l134.18-80.902c3.9453-2.9609 8.8789 1.9727 5.918 5.918l-80.902 134.18c-1.9727 3.9453-5.918 7.8906-10.852 10.852z"/>
</svg>
