<svg width="128" height="128" viewBox="0 0 128 128" fill="none" xmlns="http://www.w3.org/2000/svg">
<rect width="128" height="128" rx="20" fill="#1F2937"/>
<path d="M12.376 91L22.312 38.08H33.688L43.624 91H33.616L32.176 80.488H23.824L22.384 91H12.376ZM31.024 72.28L28.792 55.72C28.648 54.856 28.504 53.992 28.36 53.128C28.264 52.264 28.144 51.4 28 50.536C27.856 51.4 27.712 52.264 27.568 53.128C27.472 53.992 27.352 54.856 27.208 55.72L24.976 72.28H31.024ZM59.104 91V46.288H49.168V38.08H78.832V46.288H68.896V91H59.104ZM88.048 91V38.08H97.912V82.792H114.544V91H88.048Z" fill="white"/>
</svg>
