<svg width="231" height="117" viewBox="0 0 231 117" fill="none" xmlns="http://www.w3.org/2000/svg">
<rect width="231" height="117" rx="10" fill="#1F2937"/>
<path d="M28.376 85L38.312 32.08H49.688L59.624 85H49.616L48.176 74.488H39.824L38.384 85H28.376ZM47.024 66.28L44.792 49.72C44.648 48.856 44.504 47.992 44.36 47.128C44.264 46.264 44.144 45.4 44 44.536C43.856 45.4 43.712 46.264 43.568 47.128C43.472 47.992 43.352 48.856 43.208 49.72L40.976 66.28H47.024ZM75.104 85V40.288H65.168V32.08H94.832V40.288H84.896V85H75.104ZM104.048 85V32.08H113.912V76.792H130.544V85H104.048ZM152 85.576C150.608 85.576 149.24 85.432 147.896 85.144C146.552 84.856 145.28 84.376 144.08 83.704C142.928 82.984 141.896 82.096 140.984 81.04C140.12 79.984 139.4 78.832 138.824 77.584C138.296 76.288 137.936 74.968 137.744 73.624C137.552 72.28 137.456 70.912 137.456 69.52V47.56C137.456 46.168 137.552 44.8 137.744 43.456C137.936 42.112 138.296 40.816 138.824 39.568C139.4 38.272 140.12 37.096 140.984 36.04C141.896 34.984 142.928 34.12 144.08 33.448C145.28 32.728 146.552 32.2 147.896 31.864C149.24 31.48 150.608 31.288 152 31.288C153.392 31.288 154.76 31.48 156.104 31.864C157.448 32.2 158.696 32.728 159.848 33.448C161.048 34.12 162.08 34.984 162.944 36.04C163.856 37.096 164.576 38.272 165.104 39.568C165.68 40.816 166.064 42.112 166.256 43.456C166.448 44.8 166.544 46.168 166.544 47.56V69.52C166.544 70.912 166.448 72.28 166.256 73.624C166.064 74.968 165.68 76.288 165.104 77.584C164.576 78.832 163.856 79.984 162.944 81.04C162.08 82.096 161.048 82.984 159.848 83.704C158.696 84.376 157.448 84.856 156.104 85.144C154.76 85.432 153.392 85.576 152 85.576ZM152 77.368C152.576 77.368 153.128 77.248 153.656 77.008C154.184 76.768 154.616 76.432 154.952 76C155.336 75.568 155.624 75.088 155.816 74.56C156.056 74.032 156.224 73.48 156.32 72.904C156.464 72.328 156.56 71.776 156.608 71.248C156.656 70.672 156.68 70.096 156.68 69.52V47.56C156.68 46.984 156.656 46.408 156.608 45.832C156.56 45.256 156.464 44.704 156.32 44.176C156.224 43.6 156.056 43.048 155.816 42.52C155.624 41.992 155.336 41.512 154.952 41.08C154.568 40.648 154.112 40.312 153.584 40.072C153.056 39.832 152.504 39.712 151.928 39.712C151.352 39.712 150.8 39.856 150.272 40.144C149.792 40.384 149.36 40.72 148.976 41.152C148.64 41.584 148.352 42.064 148.112 42.592C147.92 43.12 147.752 43.672 147.608 44.248C147.512 44.776 147.44 45.328 147.392 45.904C147.344 46.432 147.32 46.984 147.32 47.56V69.52C147.32 70.096 147.344 70.672 147.392 71.248C147.44 71.776 147.512 72.328 147.608 72.904C147.752 73.48 147.92 74.032 148.112 74.56C148.352 75.088 148.64 75.568 148.976 76C149.36 76.432 149.816 76.768 150.344 77.008C150.872 77.248 151.424 77.368 152 77.368ZM187.856 85.576C186.608 85.576 185.336 85.456 184.04 85.216C182.792 85.024 181.592 84.64 180.44 84.064C179.288 83.44 178.256 82.672 177.344 81.76C176.432 80.848 175.664 79.84 175.04 78.736C174.464 77.584 174.032 76.384 173.744 75.136C173.456 73.84 173.312 72.544 173.312 71.248H183.176C183.176 71.968 183.248 72.688 183.392 73.408C183.584 74.128 183.872 74.8 184.256 75.424C184.64 76.048 185.144 76.528 185.768 76.864C186.44 77.2 187.136 77.368 187.856 77.368C188.624 77.368 189.344 77.176 190.016 76.792C190.688 76.408 191.216 75.904 191.6 75.28C192.032 74.608 192.32 73.888 192.464 73.12C192.656 72.352 192.752 71.608 192.752 70.888C192.752 69.784 192.512 68.728 192.032 67.72C191.552 66.664 190.904 65.776 190.088 65.056C189.32 64.336 188.432 63.736 187.424 63.256C186.464 62.728 185.504 62.2 184.544 61.672C183.584 61.096 182.648 60.496 181.736 59.872C180.872 59.248 180.032 58.576 179.216 57.856C178.448 57.088 177.728 56.272 177.056 55.408C176.384 54.544 175.808 53.608 175.328 52.6C174.896 51.592 174.56 50.56 174.32 49.504C174.128 48.4 174.032 47.32 174.032 46.264C174.032 44.968 174.152 43.696 174.392 42.448C174.68 41.2 175.088 40 175.616 38.848C176.192 37.648 176.912 36.568 177.776 35.608C178.64 34.648 179.624 33.856 180.728 33.232C181.832 32.608 183.008 32.176 184.256 31.936C185.552 31.648 186.848 31.504 188.144 31.504C189.392 31.504 190.64 31.624 191.888 31.864C193.136 32.104 194.312 32.536 195.416 33.16C196.52 33.736 197.504 34.504 198.368 35.464C199.232 36.376 199.928 37.408 200.456 38.56C201.032 39.712 201.44 40.912 201.68 42.16C201.968 43.36 202.112 44.608 202.112 45.904H192.248C192.248 45.184 192.176 44.488 192.032 43.816C191.936 43.096 191.72 42.448 191.384 41.872C191.096 41.248 190.64 40.744 190.016 40.36C189.44 39.928 188.816 39.712 188.144 39.712C187.424 39.712 186.752 39.928 186.128 40.36C185.504 40.792 185.024 41.344 184.688 42.016C184.4 42.64 184.184 43.312 184.04 44.032C183.896 44.752 183.824 45.472 183.824 46.192C183.824 47.296 184.04 48.352 184.472 49.36C184.952 50.368 185.6 51.256 186.416 52.024C187.232 52.744 188.12 53.368 189.08 53.896C190.088 54.376 191.048 54.88 191.96 55.408C192.92 55.936 193.856 56.512 194.768 57.136C195.68 57.76 196.52 58.456 197.288 59.224C198.104 59.944 198.848 60.76 199.52 61.672C200.192 62.536 200.744 63.472 201.176 64.48C201.656 65.44 201.992 66.472 202.184 67.576C202.424 68.632 202.544 69.712 202.544 70.816C202.544 72.112 202.4 73.408 202.112 74.704C201.824 76 201.392 77.224 200.816 78.376C200.24 79.528 199.496 80.584 198.584 81.544C197.672 82.504 196.64 83.296 195.488 83.92C194.336 84.544 193.112 84.976 191.816 85.216C190.52 85.456 189.2 85.576 187.856 85.576Z" fill="white"/>
</svg>
